<?xml version="1.0" encoding="utf-8"?>
<!-- Generator: Adobe Illustrator 23.0.5, SVG Export Plug-In . SVG Version: 6.00 Build 0)  -->
<svg version="1.1" id="Слой_1" xmlns="http://www.w3.org/2000/svg" xmlns:xlink="http://www.w3.org/1999/xlink" x="0px" y="0px"
	 viewBox="0 0 44 44" style="enable-background:new 0 0 44 44;" xml:space="preserve">
<style type="text/css">
	.st0{fill:#060606;fill-opacity:0.3;}
	.st1{fill:#FFFFFF;stroke:#FFFFFF;}
</style>
<path class="st0" d="M8,0h28c4.4,0,8,3.6,8,8v28c0,4.4-3.6,8-8,8H8c-4.4,0-8-3.6-8-8V8C0,3.6,3.6,0,8,0z"/>
<path class="st0" d="M8,0h28c4.4,0,8,3.6,8,8v28c0,4.4-3.6,8-8,8H8c-4.4,0-8-3.6-8-8V8C0,3.6,3.6,0,8,0z"/>
<path class="st1" d="M13.8,23L13.8,23L13.8,23c0.3-2,0.6-4,0.9-5.9c0-0.2,0.1-0.3,0.1-0.5l0,0l0,0c0-0.2,0.1-0.4,0.1-0.6
	c0.1-0.5,0.1-0.9,0.2-1.3c0.1-0.6,0.4-1.2,0.7-1.6c0.9-1.2,2.2-1.6,3.6-1.6c1.1-0.1,2.2,0.1,3.3,0.2c0.4,0,0.7,0.1,1.1,0.1l0,0
	c1,0.1,1.9,0.3,3,0.4c0.2,0,0.4,0.1,0.6,0.1v0l0,0l0.3,0c0.6,0.1,1.1,0.2,1.6,0.3l0,0l0,0h0h0.1h0.9v7.9v0v0v0v0v0v0v0v0v0v0v0v0v0
	v0v0v0v0v0v0v0v0v0v0v0v0v0v0v0v0v0v0v0v0v0v0v0v0v0v0v0v0v0v0v0v0v0v0v0v0v0v0v0v0v0v0v0v0v0v0v0v0v0v0v0v0v0v0v0v0v0v0v0v0v0v0v0
	v0v0v0v0v0v0v0v0v0v0v0v0v0v0v0v0v0v0v0v0v0v0v0v0v0v0v0v0v0v0v0v0v0v0v0v0v0v0v0v0v0v0v0v0v0v0v0v0v0v0v0v0v0v0v0v0v0v0v0v0v0v0v0
	v0v0v0v0v0v0v0v0v0v0v0v0v0v0v0v0v0v0v0v0v0v0v0v0v0v0v0v0v0v0v0v0v0v0v0v0v0v0v0v0v0v0v0v0v0v0v0v0v0v0v0v0v0v0v0v0v0v0v0v0v0v0v0
	v0v0v0v0v0v0v0v0v0v0v0v0v0v0v0v0v0v0v0v0v0v0v0v0v0v0v0v0v0v0v0v0v0v0v0v0v0v0v0v0v0v0v0v0v0v0v0v0v0v0v0v0v0v0v0v0v0v0v0v0v0v0v0
	v0v0v0v0v0v0v0v0v0v0v0v0v0v0v0v0v0v0v0v0v0v0v0v0v0v0v0v0v0v0v0v0v0v0v0v0v0v0v0v0v0v0v0v0v0v0v0v0v0v0v0v0v0v0v0v0v0v0v0v0v0v0v0
	v0v0v0v0v0v0v0v0v0v0v0v0v0v0v0v0v0v0v0v0v0v0v0v0v0v0v0v0v0v0v0v0v0v0v0v0v0v0v0v0v0v0v0v0v0v0v0v0v0v0v0v0v0v0v0v0v0v0v0v0v0v0v0
	v0v0v0v0v0v0v0v0v0v0v0v0v0v0v0v0v0v0v0v0v0v0v0v0v0v0v0v0v0v0v0v0v0v0v0v0v0v0v0v0v0v0v0v0v0v0v0v0v0v0v0v0v0v0v0v0v0v0v0v0v0v0v0
	v0v0v0v0v0v0v0v0v0v0v0v0v0v0v0v0v0v0v0v0v0v0v0v0v0v0v0v0v0v0v0v0v0v0v0v0v0v0v0v0v0v0v0v0v0v0v0v0v0v0v0v0v0v0v0v0v0v0v0.2
	c0,0.1,0,0.2,0,0.3l0,0c0,0.1,0,0.3,0,0.4c0,0.1,0,0.2-0.2,0.3c-0.2,0.1-0.5,0.2-0.9,0.3c-0.2,0-0.4,0.1-0.5,0.2c0,0,0,0,0,0l-0.1,0
	l0,0c0,0-0.1,0-0.1,0.1c-0.1,0-0.2,0.1-0.2,0.1c-0.1,0.1-0.3,0.2-0.4,0.3l-0.1,0.1l-0.1,0.1c-0.3,0.3-0.6,0.6-0.8,0.8l0,0l0,0
	l-1,1.2c-0.2,0.2-0.4,0.4-0.5,0.6c-0.3,0.3-0.5,0.5-0.7,0.8c-0.4,0.3-0.7,0.8-0.9,1.1c-0.4,0.7-0.7,1.5-0.8,2.5h0l0,0
	c-0.1,0.5-0.2,1.1-0.2,1.7c0,0.1-0.1,0.2-0.1,0.2c0,0-0.1,0.1-0.3,0.1h0h0h0h0h0h0h0h0h0h0h0h0h0h0h0h0h0h0h0h0h0h0h0h0h0h0h0h0h0h0
	h0h0h0h0h0h0h0h0h0h0h0h0h0h0h0h0h0h0h0h0h0h0h0h0h0h0h0h0h0h0h0h0h0h0h0h0h0h0h0h0h0h0h0h0h0h0h0h0h0h0h0h0h0h0h0h0h0h0h0h0h0h0h0
	h0h0h0h0h0h0h0h0h0h0h0h0h0h0h0h0h0h0h0h0h0h0h0h0h0h0h0h0h0h0h0h0h0h0h0h0h0h0h0h0h0h0h0h0h0h0h0h0h0h0h0h0h0h0h0h0h0h0h0h0h0h0h0
	h0h0h0h0h0h0h0h0h0h0h0h0h0h0h0h0h0h0h0h0h0h0h0h0h0h0h0h0h0h0h0h0h0h0h0h0h0h0h0h0h0h0h0h0h0h0h0h0h0h0h0h0h0h0h0h0h0h0h0h0h0h0h0
	h0h0h0h0h0h0h0h0h0h0h0h0h0h0h0h0h0h0h0h0h0h0h0h0h0h0h0h0h0h0h0h0h0h0h0h0h0h0h0h0h0h0h0h0h0h0h0h0h0h0h0h0h0h0h0h0h0h0h0h0h0h0h0
	h0h0h0h0h0h0h0h0h0h0h0h0h0h0h0h0h0h0h0h0h0h0h0h0h0h0h0h0h0h0h0h0h0h0h0h0h0h0h0h0h0h0h0h0h0h0h0h0h0h0h0h0h0h0h0h0h0h0h0h0h0h0h0
	h0h0h0h0h0h0h0h0h0h0h0h0h0h0h0h0h0h0h0h0h0h0h0h0h0h0h0h0h0h0h0h0h0h0h0h0h0h0h0h0h0h0h0h0h0h0h0h0h0h0h0h0h0h0h0h0h0h0h0h0h0h0h0
	h0h0h0h0h0h0h0h0h0c-0.4,0-0.8-0.1-1.2-0.3l0,0c-0.6-0.4-1.1-1.1-1.2-1.9c-0.1-0.6,0-1.3,0.3-2.2c0.1-0.3,0.2-0.6,0.3-1l0,0
	c0.1-0.3,0.2-0.6,0.3-0.9l0,0l0.4-1.2c0,0,0,0,0,0l-1-0.3c0-0.1,0.1-0.2,0.1-0.2c0,0,0.1-0.1,0.1-0.1c0,0,0,0,0,0c0,0,0,0,0,0
	c0,0-0.1,0-0.2,0c-0.2,0-0.5,0-0.8,0.1c-0.2,0-0.5,0-0.7,0c-0.1,0-0.1,0-0.2,0c-0.2,0-0.4,0-0.5,0c-1.1,0.1-2.1,0.2-3-0.1
	c0,0-0.1,0-0.1,0c0,0,0,0,0,0l0,0l-0.1,0c0,0-0.1,0-0.1-0.1c0,0,0,0-0.1,0l0,0l0,0l-0.1,0l0,0l0,0C13.9,24.1,13.7,23.5,13.8,23z"/>
</svg>
