<svg width="43" height="43" viewBox="0 0 43 43" fill="none" xmlns="http://www.w3.org/2000/svg">
<rect width="43" height="43" rx="8" transform="matrix(-1 0 0 1 43 0)" fill="white" fill-opacity="0.17"/>
<path d="M28.0923 35.913C27.9456 36.0693 27.7463 36.1578 27.538 36.1591C27.4346 36.1601 27.3322 36.1388 27.2368 36.0965C27.1415 36.0541 27.0554 35.9917 26.9837 35.913L13.9135 22.0957C13.8401 22.0191 13.7818 21.9279 13.742 21.8273C13.7022 21.7267 13.6817 21.6188 13.6817 21.5098C13.6817 21.4007 13.7022 21.2928 13.742 21.1922C13.7818 21.0916 13.8401 21.0004 13.9135 20.9238L26.9837 7.10363C27.0556 7.02242 27.1422 6.95732 27.2383 6.9122C27.3345 6.86709 27.4382 6.84288 27.5434 6.84103C27.6486 6.83917 27.7531 6.85971 27.8506 6.90141C27.9481 6.94311 28.0367 7.00513 28.1111 7.08376C28.1855 7.1624 28.2441 7.25606 28.2836 7.35916C28.323 7.46225 28.3425 7.57269 28.3407 7.68388C28.339 7.79508 28.3161 7.90477 28.2734 8.00642C28.2307 8.10807 28.1691 8.19961 28.0923 8.27558L15.5763 21.5098L28.0923 34.741C28.1654 34.8178 28.2234 34.9091 28.2629 35.0097C28.3025 35.1102 28.3229 35.2181 28.3229 35.327C28.3229 35.4359 28.3025 35.5437 28.2629 35.6443C28.2234 35.7449 28.1654 35.8362 28.0923 35.913Z" fill="white"/>
</svg>
