<?xml version="1.0" encoding="utf-8"?>
<!-- Generator: Adobe Illustrator 23.0.5, SVG Export Plug-In . SVG Version: 6.00 Build 0)  -->
<svg version="1.1" id="Слой_1" xmlns="http://www.w3.org/2000/svg" xmlns:xlink="http://www.w3.org/1999/xlink" x="0px" y="0px"
	 viewBox="0 0 44 44" style="enable-background:new 0 0 44 44;" xml:space="preserve">
<style type="text/css">
	.st0{fill:#060606;fill-opacity:0.3;}
	.st1{fill:#FFFFFF;}
</style>
<path class="st0" d="M8,0h28c4.4,0,8,3.6,8,8v28c0,4.4-3.6,8-8,8H8c-4.4,0-8-3.6-8-8V8C0,3.6,3.6,0,8,0z"/>
<path class="st0" d="M8,0h28c4.4,0,8,3.6,8,8v28c0,4.4-3.6,8-8,8H8c-4.4,0-8-3.6-8-8V8C0,3.6,3.6,0,8,0z"/>
<path class="st1" d="M31,21.1c0.1-0.8-0.3-1.6-0.9-2.1L30,19c0,0,0,0-0.1,0l-0.1,0c0,0,0,0,0,0l-0.1,0c0,0-0.1,0-0.2-0.1
	c-1-0.3-2.2-0.2-3.3-0.1c-0.3,0-2.6,0-2.6,0.2l0.4-1.2c0.2-0.7,0.4-1.3,0.6-2c0.3-1,0.4-1.7,0.3-2.5c-0.1-0.9-0.7-1.8-1.5-2.3
	c-0.5-0.3-1-0.4-1.5-0.4c0,0-0.1,0-0.1,0c-0.5,0-0.8,0.3-0.8,0.8c0,0.6-0.1,1.2-0.2,1.8c-0.2,1-0.4,1.8-0.8,2.4
	c-0.2,0.4-0.5,0.8-0.8,1c-0.4,0.4-0.8,0.9-1.3,1.5l-1.1,1.3c-0.3,0.3-0.5,0.6-0.8,0.8c0,0-0.1,0.1-0.2,0.2c-0.2,0.2-0.4,0.3-0.6,0.4
	c-0.1,0-0.3,0.1-0.5,0.2c-0.9,0.3-1.5,0.5-1.5,1.1c0,0.3,0,0.6,0,0.8v0.2c0,0.3,0,0.5,0,0.7v8.6h1.4h0.1c0.5,0.1,1,0.2,1.7,0.3
	l0.3,0c1.3,0.2,2.5,0.4,3.7,0.5c2.9,0.3,6.5,1.2,8.6-1.5c0.9-1.1,1-2.6,1.2-4C30.3,25.5,30.7,23.3,31,21.1z"/>
</svg>
