<?xml version="1.0" encoding="utf-8"?>
<!-- Generator: Adobe Illustrator 23.0.5, SVG Export Plug-In . SVG Version: 6.00 Build 0)  -->
<svg version="1.1" id="Слой_1" xmlns="http://www.w3.org/2000/svg" xmlns:xlink="http://www.w3.org/1999/xlink" x="0px" y="0px"
	 viewBox="0 0 44 44" style="enable-background:new 0 0 44 44;" xml:space="preserve">
<style type="text/css">
	.st0{fill:#060606;fill-opacity:0.3;}
	.st1{fill:#FFFFFF;}
</style>
<path class="st0" d="M8,0h28c4.4,0,8,3.6,8,8v28c0,4.4-3.6,8-8,8H8c-4.4,0-8-3.6-8-8V8C0,3.6,3.6,0,8,0z"/>
<path class="st0" d="M8,0h28c4.4,0,8,3.6,8,8v28c0,4.4-3.6,8-8,8H8c-4.4,0-8-3.6-8-8V8C0,3.6,3.6,0,8,0z"/>
<path class="st1" d="M9.8,20C9.8,20,9.8,20,9.8,20c-1,0-1.8,0.9-1.8,2c0,1.1,0.8,2,1.7,2c0,0,0,0,0,0h24.5c0,0,0,0,0,0
	c1,0,1.7-0.9,1.7-2c0-1.1-0.8-2-1.7-2c0,0,0,0,0,0H9.8z"/>
<path class="st1" d="M24,9.8C24,9.8,24,9.8,24,9.8c0-1-0.9-1.8-2-1.8c-1.1,0-2,0.8-2,1.7c0,0,0,0,0,0v0v24.5c0,0,0,0,0,0
	c0,1,0.9,1.7,2,1.7c1.1,0,2-0.8,2-1.7c0,0,0,0,0,0v0V9.8z"/>
</svg>
