<svg width="12" height="13" viewBox="0 0 12 13" fill="none" xmlns="http://www.w3.org/2000/svg">
<path d="M1.09475 0.169257C0.844336 -0.056419 0.438302 -0.056419 0.187807 0.169257C-0.0626024 0.394894 -0.0626024 0.760862 0.187807 0.986615C1.81904 2.45673 2.71747 4.41476 2.71747 6.49994C2.71747 8.58512 1.81904 10.5431 0.187807 12.0133C-0.0626024 12.2389 -0.0626024 12.6049 0.187807 12.8306C0.313076 12.9436 0.477165 13 0.641297 13C0.805387 13 0.969562 12.9436 1.09466 12.8306C2.96822 11.1422 4 8.89391 4 6.49994C4 4.10597 2.96831 1.85772 1.09475 0.169257Z" fill="white"/>
<path d="M5.09475 0.169257C4.84434 -0.056419 4.4383 -0.056419 4.18781 0.169257C3.9374 0.394894 3.9374 0.760862 4.18781 0.986615C5.81904 2.45673 6.71747 4.41476 6.71747 6.49994C6.71747 8.58512 5.81904 10.5431 4.18781 12.0133C3.9374 12.2389 3.9374 12.6049 4.18781 12.8306C4.31308 12.9436 4.47717 13 4.6413 13C4.80539 13 4.96956 12.9436 5.09466 12.8306C6.96822 11.1422 8 8.89391 8 6.49994C8 4.10597 6.96831 1.85772 5.09475 0.169257Z" fill="white"/>
<path d="M9.09475 0.169257C8.84434 -0.056419 8.4383 -0.056419 8.18781 0.169257C7.9374 0.394894 7.9374 0.760862 8.18781 0.986615C9.81904 2.45673 10.7175 4.41476 10.7175 6.49994C10.7175 8.58512 9.81904 10.5431 8.18781 12.0133C7.9374 12.2389 7.9374 12.6049 8.18781 12.8306C8.31308 12.9436 8.47717 13 8.6413 13C8.80539 13 8.96956 12.9436 9.09466 12.8306C10.9682 11.1422 12 8.89391 12 6.49994C12 4.10597 10.9683 1.85772 9.09475 0.169257Z" fill="white"/>
</svg>
