<svg width="18" height="23" viewBox="0 0 18 23" fill="none" xmlns="http://www.w3.org/2000/svg">
<path d="M0.516592 12.163L0.517982 12.1546L0.519091 12.1462C0.781187 10.1618 1.11283 8.21141 1.45135 6.22056C1.47774 6.06538 1.50417 5.90995 1.53061 5.75423L1.53066 5.75424L1.53168 5.74771C1.56549 5.53131 1.59496 5.31853 1.62407 5.1083C1.68733 4.65156 1.74892 4.20682 1.84981 3.76293C1.99375 3.12957 2.20429 2.57432 2.56225 2.13092C3.49804 0.979595 4.73007 0.577065 6.12286 0.510288C7.19849 0.458717 8.31231 0.606859 9.42574 0.754948C9.78935 0.803308 10.1529 0.851664 10.5151 0.893066L10.5186 0.893442C11.4687 0.995239 12.4473 1.1546 13.4962 1.32541C13.6827 1.35577 13.8714 1.3865 14.0625 1.41733L14.0625 1.41741L14.0714 1.41869L14.3447 1.45772C14.9934 1.57926 15.4817 1.66063 15.9659 1.74133L15.9668 1.74148L16.0076 1.74828H16.049H16.1301H17.0095V9.60592V9.60734V9.60877V9.61019V9.61162V9.61304V9.61446V9.61588V9.6173V9.61872V9.62014V9.62155V9.62297V9.62438V9.6258V9.62721V9.62862V9.63004V9.63145V9.63286V9.63426V9.63567V9.63708V9.63849V9.63989V9.6413V9.6427V9.6441V9.6455V9.64691V9.64831V9.64971V9.65111V9.6525V9.6539V9.6553V9.65669V9.65809V9.65948V9.66088V9.66227V9.66366V9.66505V9.66644V9.66783V9.66922V9.67061V9.67199V9.67338V9.67477V9.67615V9.67753V9.67892V9.6803V9.68168V9.68306V9.68444V9.68582V9.6872V9.68858V9.68996V9.69133V9.69271V9.69409V9.69546V9.69683V9.69821V9.69958V9.70095V9.70232V9.70369V9.70506V9.70643V9.7078V9.70917V9.71054V9.7119V9.71327V9.71463V9.716V9.71736V9.71873V9.72009V9.72145V9.72281V9.72417V9.72553V9.72689V9.72825V9.72961V9.73097V9.73233V9.73368V9.73504V9.73639V9.73775V9.7391V9.74046V9.74181V9.74316V9.74451V9.74586V9.74722V9.74857V9.74992V9.75126V9.75261V9.75396V9.75531V9.75665V9.758V9.75935V9.76069V9.76204V9.76338V9.76473V9.76607V9.76741V9.76875V9.7701V9.77144V9.77278V9.77412V9.77546V9.7768V9.77814V9.77947V9.78081V9.78215V9.78349V9.78482V9.78616V9.78749V9.78883V9.79016V9.7915V9.79283V9.79417V9.7955V9.79683V9.79816V9.79949V9.80083V9.80216V9.80349V9.80482V9.80615V9.80748V9.80881V9.81013V9.81146V9.81279V9.81412V9.81544V9.81677V9.8181V9.81942V9.82075V9.82207V9.8234V9.82472V9.82605V9.82737V9.82869V9.83002V9.83134V9.83266V9.83398V9.8353V9.83663V9.83795V9.83927V9.84059V9.84191V9.84323V9.84455V9.84587V9.84719V9.8485V9.84982V9.85114V9.85246V9.85378V9.85509V9.85641V9.85773V9.85904V9.86036V9.86168V9.86299V9.86431V9.86562V9.86694V9.86825V9.86957V9.87088V9.87219V9.87351V9.87482V9.87614V9.87745V9.87876V9.88007V9.88139V9.8827V9.88401V9.88532V9.88664V9.88795V9.88926V9.89057V9.89188V9.89319V9.8945V9.89581V9.89713V9.89844V9.89975V9.90106V9.90237V9.90368V9.90499V9.9063V9.90761V9.90891V9.91022V9.91153V9.91284V9.91415V9.91546V9.91677V9.91808V9.91939V9.92069V9.922V9.92331V9.92462V9.92593V9.92724V9.92854V9.92985V9.93116V9.93247V9.93377V9.93508V9.93639V9.9377V9.93901V9.94031V9.94162V9.94293V9.94424V9.94554V9.94685V9.94816V9.94947V9.95077V9.95208V9.95339V9.9547V9.956V9.95731V9.95862V9.95993V9.96123V9.96254V9.96385V9.96516V9.96646V9.96777V9.96908V9.97039V9.97169V9.973V9.97431V9.97562V9.97693V9.97824V9.97954V9.98085V9.98216V9.98347V9.98478V9.98609V9.9874V9.9887V9.99001V9.99132V9.99263V9.99394V9.99525V9.99656V9.99787V9.99918V10.0005V10.0018V10.0031V10.0044V10.0057V10.007V10.0084V10.0097V10.011V10.0123V10.0136V10.0149V10.0162V10.0175V10.0188V10.0202V10.0215V10.0228V10.0241V10.0254V10.0267V10.028V10.0294V10.0307V10.032V10.0333V10.0346V10.0359V10.0372V10.0386V10.0399V10.0412V10.0425V10.0438V10.0451V10.0465V10.0478V10.0491V10.0504V10.0517V10.053V10.0544V10.0557V10.057V10.0583V10.0596V10.061V10.0623V10.0636V10.0649V10.0662V10.0676V10.0689V10.0702V10.0715V10.0729V10.0742V10.0755V10.0768V10.0781V10.0795V10.0808V10.0821V10.0835V10.0848V10.0861V10.0874V10.0888V10.0901V10.0914V10.0927V10.0941V10.0954V10.0967V10.0981V10.0994V10.1007V10.1021V10.1034V10.1047V10.106V10.1074V10.1087V10.11V10.1114V10.1127V10.1141V10.1154V10.1167V10.1181V10.1194V10.1207V10.1221V10.1234V10.1247V10.1261V10.1274V10.1288V10.1301V10.1315V10.1328V10.1341V10.1355V10.1368V10.1382V10.1395V10.1409V10.1422V10.1435V10.1449V10.1462V10.1476V10.1489V10.1503V10.1516V10.153V10.1543V10.1557V10.157V10.1584V10.1597V10.1611V10.1624V10.1638V10.1652V10.1665V10.1679V10.1692V10.1706V10.1719V10.1733V10.1747V10.176V10.1774V10.1787V10.1801V10.1815V10.1828V10.1842V10.1855V10.1869V10.1883V10.1896V10.191V10.1924V10.1937V10.1951V10.1965V10.1979V10.1992V10.2006V10.202V10.2033V10.2047V10.2061V10.2075V10.2088V10.2102V10.2116V10.213V10.2143V10.2157V10.2171V10.2185V10.2199V10.2212V10.2226V10.224V10.2254V10.2268V10.2282V10.2296V10.2309V10.2323V10.2337V10.2351V10.2365V10.2379V10.2393V10.2407V10.2421V10.2435V10.2449V10.2462V10.2476V10.249V10.2504V10.2518V10.2532V10.2546V10.256V10.2574V10.2588V10.2603V10.2617V10.2631V10.2645V10.2659V10.2673V10.2687V10.2701V10.2715V10.2729V10.2743V10.2757V10.2772V10.2786V10.28V10.2814V10.2828V10.2842V10.2857V10.2871V10.2885V10.2899V10.2914V10.2928V10.2942V10.2956V10.4579C17.0095 10.5561 17.0014 10.6662 16.991 10.8066L16.9906 10.8115C16.981 10.9408 16.97 11.0922 16.969 11.2477C16.9599 11.338 16.9238 11.4091 16.7848 11.4998C16.6114 11.613 16.3318 11.7168 15.8991 11.8357C15.6667 11.8779 15.4586 11.9594 15.3658 11.9958C15.3458 12.0036 15.3312 12.0093 15.3229 12.0121L15.2708 12.0295L15.2237 12.0577C15.1996 12.0722 15.1619 12.094 15.119 12.1188C15.0467 12.1606 14.9598 12.2109 14.8983 12.249C14.7802 12.3221 14.6406 12.4169 14.5188 12.5386L14.4022 12.6553L14.3291 12.7283C14.0223 12.9939 13.7624 13.2971 13.5297 13.5686L13.5209 13.579L13.5191 13.5811L12.4711 14.7902C12.271 15.0071 12.0924 15.2079 11.9253 15.3958C11.6698 15.6829 11.4411 15.94 11.2031 16.1789C10.8223 16.5162 10.5497 16.9335 10.3383 17.3139C9.93703 18.0276 9.67964 18.8572 9.51127 19.8253L9.51118 19.8253L9.50969 19.8349C9.42832 20.3639 9.34461 20.9478 9.30244 21.5771C9.2894 21.7261 9.24647 21.7791 9.22296 21.8009C9.19483 21.8269 9.12652 21.8698 8.9669 21.8858H8.96678H8.96654H8.9663H8.96606H8.96583H8.96559H8.96535H8.96511H8.96488H8.96464H8.9644H8.96416H8.96392H8.96369H8.96345H8.96321H8.96297H8.96274H8.9625H8.96226H8.96202H8.96179H8.96155H8.96131H8.96107H8.96083H8.9606H8.96036H8.96012H8.95988H8.95965H8.95941H8.95917H8.95893H8.9587H8.95846H8.95822H8.95798H8.95774H8.95751H8.95727H8.95703H8.95679H8.95656H8.95632H8.95608H8.95584H8.9556H8.95537H8.95513H8.95489H8.95465H8.95442H8.95418H8.95394H8.9537H8.95347H8.95323H8.95299H8.95275H8.95251H8.95228H8.95204H8.9518H8.95156H8.95133H8.95109H8.95085H8.95061H8.95037H8.95014H8.9499H8.94966H8.94942H8.94919H8.94895H8.94871H8.94847H8.94824H8.948H8.94776H8.94752H8.94728H8.94705H8.94681H8.94657H8.94633H8.9461H8.94586H8.94562H8.94538H8.94514H8.94491H8.94467H8.94443H8.94419H8.94396H8.94372H8.94348H8.94324H8.94301H8.94277H8.94253H8.94229H8.94205H8.94182H8.94158H8.94134H8.9411H8.94087H8.94063H8.94039H8.94015H8.93991H8.93968H8.93944H8.9392H8.93896H8.93873H8.93849H8.93825H8.93801H8.93778H8.93754H8.9373H8.93706H8.93682H8.93659H8.93635H8.93611H8.93587H8.93564H8.9354H8.93516H8.93492H8.93469H8.93445H8.93421H8.93397H8.93373H8.9335H8.93326H8.93302H8.93278H8.93255H8.93231H8.93207H8.93183H8.93159H8.93136H8.93112H8.93088H8.93064H8.93041H8.93017H8.92993H8.92969H8.92946H8.92922H8.92898H8.92874H8.9285H8.92827H8.92803H8.92779H8.92755H8.92732H8.92708H8.92684H8.9266H8.92636H8.92613H8.92589H8.92565H8.92541H8.92518H8.92494H8.9247H8.92446H8.92423H8.92399H8.92375H8.92351H8.92327H8.92304H8.9228H8.92256H8.92232H8.92209H8.92185H8.92161H8.92137H8.92113H8.9209H8.92066H8.92042H8.92018H8.91995H8.91971H8.91947H8.91923H8.919H8.91876H8.91852H8.91828H8.91805H8.91781H8.91757H8.91733H8.91709H8.91686H8.91662H8.91638H8.91614H8.9159H8.91567H8.91543H8.91519H8.91495H8.91472H8.91448H8.91424H8.914H8.91377H8.91353H8.91329H8.91305H8.91282H8.91258H8.91234H8.9121H8.91186H8.91163H8.91139H8.91115H8.91091H8.91068H8.91044H8.9102H8.90996H8.90972H8.90949H8.90925H8.90901H8.90877H8.90854H8.9083H8.90806H8.90782H8.90759H8.90735H8.90711H8.90687H8.90663H8.9064H8.90616H8.90592H8.90568H8.90545H8.90521H8.90497H8.90473H8.90449H8.90426H8.90402H8.90378H8.90354H8.90331H8.90307H8.90283H8.90259H8.90236H8.90212H8.90188H8.90164H8.9014H8.90117H8.90093H8.90069H8.90045H8.90022H8.89998H8.89974H8.8995H8.89927H8.89903H8.89879H8.89855H8.89831H8.89808H8.89784H8.8976H8.89736H8.89713H8.89689H8.89665H8.89641H8.89617H8.89594H8.8957H8.89546H8.89522H8.89499H8.89475H8.89451H8.89427H8.89404H8.8938H8.89356H8.89332H8.89308H8.89285H8.89261H8.89237H8.89213H8.8919H8.89166H8.89142H8.89118H8.89094H8.89071H8.89047H8.89023H8.88999H8.88976H8.88952H8.88928H8.88904H8.88881H8.88857H8.88833H8.88809H8.88785H8.88762H8.88738H8.88714H8.8869H8.88667H8.88643H8.88619H8.88595H8.88571H8.88548H8.88524H8.885H8.88476H8.88453H8.88429H8.88405H8.88381H8.88358H8.88334H8.8831H8.88286H8.88262H8.88239H8.88215H8.88191H8.88167H8.88144H8.8812H8.88096H8.88072H8.88048H8.88025H8.88001H8.87977H8.87953H8.8793H8.87906H8.87882H8.87858H8.87835H8.87811H8.87787H8.87763H8.87739H8.87716H8.87692H8.87668H8.87644H8.87621H8.87597H8.87573H8.87549H8.87525H8.87502H8.87478H8.87454H8.8743H8.87407H8.87383H8.87359H8.87335H8.87312H8.87288H8.87264H8.8724H8.87216H8.87193H8.87169H8.87145H8.87121H8.87098H8.87074H8.8705H8.87026H8.87002H8.86979H8.86955H8.86931H8.86907H8.86884H8.8686H8.86836H8.86812H8.86789C8.46652 21.8858 8.07466 21.7863 7.71634 21.5583L7.7149 21.5573C7.07566 21.1536 6.62831 20.4372 6.52416 19.6872C6.4534 19.0421 6.52179 18.3832 6.78974 17.5022C6.89246 17.1734 6.98477 16.8555 7.07549 16.543L7.07608 16.541C7.16756 16.2259 7.25747 15.9162 7.35714 15.5973L7.35743 15.5964L7.72011 14.4277C7.72376 14.4165 7.72711 14.4049 7.73011 14.3929L6.76753 14.1234C6.80289 14.01 6.87045 13.9405 6.90747 13.9084C6.94876 13.8726 6.98523 13.8545 6.9991 13.8479C7.01765 13.8392 7.0295 13.8358 7.02923 13.8359C7.02909 13.836 7.02599 13.8369 7.01926 13.8385C6.98397 13.8468 6.91595 13.8577 6.81037 13.8688C6.6046 13.8905 6.32256 13.9065 6.02214 13.9191C5.79675 13.9286 5.56865 13.9359 5.3625 13.9425C5.29532 13.9446 5.23048 13.9467 5.16881 13.9487C4.95693 13.9558 4.73473 13.9632 4.62429 13.9786C3.56362 14.1009 2.54984 14.2006 1.66383 13.9258C1.6312 13.9117 1.60162 13.9012 1.57723 13.8934C1.57332 13.8921 1.56949 13.8909 1.56577 13.8897L1.55119 13.8751L1.44507 13.8398C1.41657 13.8184 1.38843 13.8017 1.36271 13.7889C1.34012 13.7776 1.31831 13.7687 1.29795 13.7616L1.26128 13.7432L1.25271 13.739L1.18014 13.7027L1.15571 13.6904L1.14932 13.6873C0.682211 13.2918 0.431795 12.6717 0.516592 12.163Z" fill="white" stroke="white"/>
</svg>
